<svg xmlns="http://www.w3.org/2000/svg" width="12" viewBox="0 0 12 8" height="8"><path transform="translate(-214 -2)" fill-rule="evenodd" fill="#fdc700" d="m215.63528 6s-1.429973 2.86879262-1.559212 3.13309474c-.22547.46130015.089627.86690526.431332.86690526h3.445526c.354509 0 .572776-.24685291.712886-.53259263.129973-.26494311.88814-1.88138098.88814-1.88138098h2.314911v1.82305076c0 .52027135.551837.73343665.875336.38872567.806248-.85907091 1.927259-2.05630041 3.070144-3.29049374.144978-.15654434.185657-.3814611.185657-.50730908 0-.1259192-.040679-.35076474-.185657-.50730908-1.142885-1.23419333-2.263896-2.43149405-3.070144-3.29056497-.323499-.34471093-.875336-.13147445-.875336.38872568v1.82312198h-2.314911s-.758167-1.61643787-.88814-1.8814522c-.14011-.2856685-.358377-.53252141-.712886-.53252141h-3.445526c-.341705 0-.656802.40560511-.431332.86683404.129239.26437334 1.559212 3.13316596 1.559212 3.13316596"></path></svg>
