<svg width="192" height="121" viewBox="0 0 192 121" fill="none" xmlns="http://www.w3.org/2000/svg">
<g filter="url(#filter0_d_1428_256)">
<path fill-rule="evenodd" clip-rule="evenodd" d="M164.059 64.6271C167.582 64.6271 170.438 61.7752 170.438 58.2581C170.438 54.7403 167.582 51.8892 164.059 51.8892C160.535 51.8892 157.679 54.7403 157.679 58.2581C157.679 61.7752 160.535 64.6271 164.059 64.6271ZM24.5452 2.21289H134.844C144.831 2.21289 153.133 9.39353 154.867 18.8645H155.278C166.524 18.8645 175.64 27.9659 175.64 39.1934V40.5096C182.772 42.4371 188.019 48.9397 188.019 56.6694V58.6637C188.019 66.3933 182.772 72.8959 175.64 74.8234V76.6136C175.64 87.8404 166.524 96.9424 155.278 96.9424H155.101C154.064 107.198 145.39 115.204 134.844 115.204H24.5452C13.2996 115.204 4.18359 106.102 4.18359 94.8753V22.5418C4.18359 11.3143 13.2996 2.21289 24.5452 2.21289Z" fill="#FDF4DE"/>
<path d="M28.762 67.422L25.738 67.152L26.404 54.786C26.092 54.858 25.804 54.942 25.54 55.038L25 51.978C25.636 51.846 26.422 51.708 27.358 51.564C28.294 51.42 29.26 51.348 30.256 51.348C31.024 51.348 31.804 51.432 32.596 51.6C33.388 51.756 34.144 52.02 34.864 52.392C35.596 52.752 36.244 53.238 36.808 53.85C37.384 54.462 37.834 55.212 38.158 56.1C38.494 56.988 38.662 58.038 38.662 59.25C38.662 60.954 38.386 62.412 37.834 63.624C37.294 64.824 36.502 65.742 35.458 66.378C34.426 67.014 33.178 67.332 31.714 67.332C30.742 67.332 29.782 67.152 28.834 66.792C28.81 67.032 28.786 67.242 28.762 67.422ZM30.13 54.372C29.962 54.372 29.788 54.372 29.608 54.372C29.488 56.604 29.38 58.506 29.284 60.078C29.188 61.638 29.104 62.94 29.032 63.984C29.392 64.104 29.788 64.212 30.22 64.308C30.664 64.392 31.126 64.434 31.606 64.434C32.578 64.434 33.358 64.188 33.946 63.696C34.546 63.204 34.978 62.556 35.242 61.752C35.506 60.936 35.638 60.054 35.638 59.106C35.638 58.35 35.524 57.708 35.296 57.18C35.068 56.652 34.768 56.214 34.396 55.866C34.036 55.518 33.64 55.248 33.208 55.056C32.776 54.852 32.35 54.702 31.93 54.606C31.522 54.51 31.156 54.45 30.832 54.426C30.508 54.39 30.274 54.372 30.13 54.372ZM46.4718 67.332C45.5598 67.332 44.7378 67.266 44.0058 67.134C43.2858 67.014 42.6738 66.774 42.1698 66.414C41.6658 66.066 41.2818 65.55 41.0178 64.866C40.7538 64.182 40.6218 63.288 40.6218 62.184C40.6218 61.38 40.6638 60.546 40.7478 59.682C40.8318 58.818 40.9338 57.984 41.0538 57.18C41.1858 56.364 41.3118 55.638 41.4318 55.002C41.1918 55.038 40.9878 55.074 40.8198 55.11L40.4778 52.248C41.0658 52.14 41.7438 52.05 42.5118 51.978C43.2918 51.894 44.1138 51.822 44.9778 51.762C45.8538 51.702 46.7238 51.66 47.5878 51.636C48.4518 51.6 49.2618 51.582 50.0178 51.582C50.6178 51.582 51.1638 51.594 51.6558 51.618C52.1598 51.63 52.5738 51.654 52.8978 51.69L52.7538 54.696C52.4298 54.636 51.9918 54.594 51.4398 54.57C50.8878 54.534 50.2698 54.516 49.5858 54.516C48.7818 54.516 47.9238 54.534 47.0118 54.57C46.0998 54.606 45.2298 54.648 44.4018 54.696C44.3058 55.2 44.2218 55.716 44.1498 56.244C44.0778 56.772 44.0118 57.294 43.9518 57.81C44.6478 57.714 45.4098 57.642 46.2378 57.594C47.0778 57.534 47.9118 57.492 48.7398 57.468C49.5678 57.432 50.3118 57.414 50.9718 57.414C51.3558 57.414 51.6978 57.42 51.9978 57.432C52.2978 57.432 52.5438 57.444 52.7358 57.468L52.6638 60.42C52.5078 60.408 52.2918 60.402 52.0158 60.402C51.7518 60.39 51.4398 60.384 51.0798 60.384C50.5638 60.384 49.9878 60.396 49.3518 60.42C48.7158 60.432 48.0558 60.456 47.3718 60.492C46.6998 60.516 46.0458 60.552 45.4098 60.6C44.7738 60.636 44.1978 60.684 43.6818 60.744C43.6338 61.416 43.6098 61.956 43.6098 62.364C43.6098 62.952 43.6878 63.384 43.8438 63.66C43.9998 63.936 44.2578 64.116 44.6178 64.2C44.9898 64.272 45.4758 64.308 46.0758 64.308C47.1438 64.308 48.2898 64.218 49.5137 64.038C50.7498 63.858 51.9678 63.576 53.1678 63.192L53.3658 66.324C51.9258 66.72 50.6178 66.984 49.4418 67.116C48.2778 67.26 47.2878 67.332 46.4718 67.332ZM57.8814 67.278L54.8034 66.702C55.3794 64.374 55.9794 62.268 56.6034 60.384C57.2394 58.5 57.8934 56.886 58.5654 55.542C59.2374 54.198 59.9214 53.166 60.6174 52.446C61.3254 51.714 62.0334 51.348 62.7414 51.348C64.1694 51.348 65.4834 52.674 66.6834 55.326C67.8834 57.966 68.9034 61.794 69.7434 66.81L66.5574 67.242C66.4134 66.45 66.2574 65.64 66.0894 64.812C65.9214 63.972 65.7474 63.156 65.5674 62.364C65.2794 62.352 64.9674 62.346 64.6314 62.346C64.0434 62.346 63.4194 62.358 62.7594 62.382C62.1114 62.406 61.4694 62.448 60.8334 62.508C60.2094 62.556 59.6274 62.61 59.0874 62.67C58.8594 63.438 58.6374 64.218 58.4214 65.01C58.2174 65.79 58.0374 66.546 57.8814 67.278ZM61.1934 56.766C60.9294 57.33 60.5754 58.242 60.1314 59.502C60.6474 59.442 61.1934 59.4 61.7694 59.376C62.3454 59.34 62.9094 59.322 63.4614 59.322C63.9294 59.322 64.3794 59.334 64.8114 59.358C64.6434 58.746 64.4814 58.2 64.3254 57.72C64.1814 57.24 64.0494 56.862 63.9294 56.586C63.6774 55.938 63.4554 55.482 63.2634 55.218C63.0714 54.942 62.8734 54.804 62.6694 54.804C62.4534 54.804 62.2374 54.948 62.0214 55.236C61.8054 55.512 61.5294 56.022 61.1934 56.766ZM76.5863 67.314C75.3983 67.314 74.4563 67.212 73.7603 67.008C73.0643 66.804 72.5483 66.516 72.2123 66.144C71.8763 65.784 71.6543 65.358 71.5463 64.866C71.4503 64.362 71.4023 63.822 71.4023 63.246C71.4023 62.286 71.4263 61.188 71.4743 59.952C71.5343 58.716 71.6063 57.39 71.6903 55.974C71.7863 54.546 71.8883 53.07 71.9963 51.546L75.2723 51.87C75.1523 52.794 75.0443 53.742 74.9483 54.714C74.8643 55.674 74.7923 56.61 74.7323 57.522C74.6723 58.434 74.6243 59.262 74.5883 60.006C74.5523 60.75 74.5223 61.374 74.4983 61.878C74.4863 62.37 74.4803 62.688 74.4803 62.832C74.4803 63.252 74.5283 63.57 74.6243 63.786C74.7203 63.99 74.9123 64.128 75.2003 64.2C75.4883 64.272 75.9083 64.308 76.4603 64.308C77.1563 64.308 77.9423 64.266 78.8183 64.182C79.6943 64.086 80.5823 63.948 81.4823 63.768C82.3823 63.588 83.2043 63.372 83.9483 63.12L84.6503 66.216C83.8343 66.42 82.9523 66.606 82.0043 66.774C81.0683 66.942 80.1323 67.074 79.1963 67.17C78.2603 67.266 77.3903 67.314 76.5863 67.314ZM90.709 67.296C90.601 66.624 90.523 65.802 90.475 64.83C90.427 63.858 90.403 62.808 90.403 61.68C90.403 60.516 90.421 59.322 90.457 58.098C90.505 56.874 90.559 55.698 90.619 54.57C90.691 53.43 90.769 52.422 90.853 51.546L93.985 51.6C93.853 52.44 93.745 53.376 93.661 54.408C93.589 55.428 93.529 56.49 93.481 57.594C94.333 57.474 95.257 57.384 96.253 57.324C97.249 57.264 98.209 57.234 99.133 57.234C99.577 57.234 100.003 57.246 100.411 57.27C100.399 56.37 100.381 55.53 100.357 54.75C100.333 53.97 100.303 53.31 100.267 52.77C100.231 52.23 100.189 51.858 100.141 51.654L103.237 51.456C103.345 52.464 103.429 53.67 103.489 55.074C103.561 56.478 103.597 57.966 103.597 59.538C103.597 60.81 103.573 62.106 103.525 63.426C103.477 64.734 103.393 65.994 103.273 67.206H100.267C100.315 66.822 100.351 66.3 100.375 65.64C100.399 64.968 100.417 64.212 100.429 63.372C100.441 62.52 100.447 61.632 100.447 60.708C100.447 60.54 100.447 60.366 100.447 60.186C100.219 60.186 99.985 60.186 99.745 60.186C99.517 60.174 99.283 60.168 99.043 60.168C98.095 60.168 97.135 60.204 96.163 60.276C95.203 60.336 94.285 60.426 93.409 60.546C93.409 60.93 93.409 61.314 93.409 61.698C93.409 62.754 93.415 63.744 93.427 64.668C93.451 65.592 93.487 66.432 93.535 67.188L90.709 67.296ZM113.335 67.206C112.207 67.206 111.181 66.996 110.257 66.576C109.333 66.168 108.535 65.598 107.863 64.866C107.191 64.134 106.675 63.3 106.315 62.364C105.955 61.428 105.775 60.438 105.775 59.394C105.775 58.434 105.919 57.492 106.207 56.568C106.495 55.632 106.933 54.786 107.521 54.03C108.109 53.262 108.853 52.65 109.753 52.194C110.665 51.738 111.739 51.51 112.975 51.51C114.259 51.51 115.375 51.732 116.323 52.176C117.271 52.608 118.051 53.19 118.663 53.922C119.275 54.654 119.731 55.482 120.031 56.406C120.331 57.33 120.481 58.278 120.481 59.25C120.481 60.414 120.307 61.482 119.959 62.454C119.611 63.426 119.119 64.272 118.483 64.992C117.847 65.7 117.091 66.246 116.215 66.63C115.339 67.014 114.379 67.206 113.335 67.206ZM113.335 64.2C114.055 64.2 114.721 64.026 115.333 63.678C115.945 63.318 116.437 62.76 116.809 62.004C117.181 61.248 117.367 60.264 117.367 59.052C117.367 58.008 117.163 57.15 116.755 56.478C116.347 55.806 115.819 55.308 115.171 54.984C114.523 54.66 113.845 54.498 113.137 54.498C112.333 54.498 111.655 54.642 111.103 54.93C110.551 55.218 110.107 55.608 109.771 56.1C109.435 56.58 109.195 57.12 109.051 57.72C108.907 58.32 108.835 58.938 108.835 59.574C108.835 60.198 108.955 60.792 109.195 61.356C109.435 61.908 109.759 62.4 110.167 62.832C110.587 63.252 111.067 63.588 111.607 63.84C112.147 64.08 112.723 64.2 113.335 64.2ZM127.681 67.332C127.597 66.288 127.537 65.274 127.501 64.29C127.477 63.306 127.465 62.376 127.465 61.5C127.465 60.048 127.495 58.746 127.555 57.594C127.615 56.43 127.675 55.428 127.735 54.588C126.703 54.648 125.701 54.726 124.729 54.822C123.757 54.918 122.857 55.044 122.029 55.2L122.065 52.194C123.469 51.942 124.909 51.762 126.385 51.654C127.861 51.534 129.337 51.474 130.813 51.474C131.869 51.474 132.877 51.498 133.837 51.546C134.809 51.594 135.739 51.666 136.627 51.762L136.609 54.876C135.769 54.744 134.857 54.654 133.873 54.606C132.901 54.546 131.905 54.516 130.885 54.516C130.825 55.332 130.771 56.244 130.723 57.252C130.675 58.248 130.651 59.316 130.651 60.456C130.651 61.476 130.675 62.55 130.723 63.678C130.783 64.806 130.855 65.994 130.939 67.242L127.681 67.332Z" fill="#FFB823"/>
</g>
<defs>
<filter id="filter0_d_1428_256" x="0.596574" y="0.419381" width="191.009" height="120.166" filterUnits="userSpaceOnUse" color-interpolation-filters="sRGB">
<feFlood flood-opacity="0" result="BackgroundImageFix"/>
<feColorMatrix in="SourceAlpha" type="matrix" values="0 0 0 0 0 0 0 0 0 0 0 0 0 0 0 0 0 0 127 0" result="hardAlpha"/>
<feOffset dy="1.79351"/>
<feGaussianBlur stdDeviation="1.79351"/>
<feColorMatrix type="matrix" values="0 0 0 0 0 0 0 0 0 0 0 0 0 0 0 0 0 0 0.219979 0"/>
<feBlend mode="normal" in2="BackgroundImageFix" result="effect1_dropShadow_1428_256"/>
<feBlend mode="normal" in="SourceGraphic" in2="effect1_dropShadow_1428_256" result="shape"/>
</filter>
</defs>
</svg>
