<svg width="20" height="20" viewBox="0 0 32 32" fill="none" xmlns="http://www.w3.org/2000/svg">
<path d="M26.5386 1.33203H5.46265C4.36767 1.33203 3.31752 1.76701 2.54325 2.54128C1.76897 3.31558 1.33398 4.36571 1.33398 5.46071V26.5367C1.33398 27.6318 1.76897 28.6819 2.54325 29.4561C3.31752 30.2303 4.36767 30.6654 5.46265 30.6654H15.0547V19.9587H11.4283V15.7824H15.0547V12.7061C15.0547 10.9625 15.5368 9.60771 16.5012 8.64521C17.4655 7.68088 18.7727 7.19688 20.4245 7.19688C22.0781 7.19688 23.1488 7.26104 23.6383 7.38204V11.1H21.4346C20.639 11.1 20.0963 11.2687 19.8048 11.606C19.5151 11.9416 19.3703 12.4476 19.3703 13.1204V15.7824H23.5008L22.9508 19.9587H19.3703V30.6654H26.5386C27.6337 30.6654 28.6838 30.2303 29.4581 29.4561C30.2325 28.6819 30.6673 27.6318 30.6673 26.5367V5.46071C30.6673 4.36571 30.2325 3.31558 29.4581 2.54128C28.6838 1.76701 27.6337 1.33203 26.5386 1.33203Z" fill="currentColor"/>
</svg>
