<svg width="20" height="20" viewBox="0 0 32 32" fill="none" xmlns="http://www.w3.org/2000/svg">
<path d="M16.0006 11.1075C13.3075 11.1075 11.1097 13.3053 11.1097 15.9984C11.1097 18.6915 13.3075 20.8893 16.0006 20.8893C18.6937 20.8893 20.8915 18.6915 20.8915 15.9984C20.8915 13.3053 18.6937 11.1075 16.0006 11.1075ZM30.6696 15.9984C30.6696 13.9731 30.6879 11.9661 30.5742 9.94445C30.4605 7.59624 29.9248 5.5122 28.2076 3.79507C26.4868 2.07428 24.4065 1.54226 22.0583 1.42852C20.0329 1.31478 18.0259 1.33312 16.0043 1.33312C13.979 1.33312 11.972 1.31478 9.95031 1.42852C7.6021 1.54226 5.51806 2.07795 3.80093 3.79507C2.08014 5.51587 1.54812 7.59624 1.43438 9.94445C1.32064 11.9698 1.33898 13.9768 1.33898 15.9984C1.33898 18.0201 1.32064 20.0307 1.43438 22.0524C1.54812 24.4006 2.0838 26.4846 3.80093 28.2018C5.52173 29.9226 7.6021 30.4546 9.95031 30.5683C11.9756 30.6821 13.9826 30.6637 16.0043 30.6637C18.0296 30.6637 20.0366 30.6821 22.0583 30.5683C24.4065 30.4546 26.4905 29.9189 28.2076 28.2018C29.9284 26.481 30.4605 24.4006 30.5742 22.0524C30.6916 20.0307 30.6696 18.0238 30.6696 15.9984ZM16.0006 23.5237C11.8362 23.5237 8.47534 20.1628 8.47534 15.9984C8.47534 11.834 11.8362 8.47315 16.0006 8.47315C20.165 8.47315 23.5259 11.834 23.5259 15.9984C23.5259 20.1628 20.165 23.5237 16.0006 23.5237ZM23.8341 9.92243C22.8618 9.92243 22.0766 9.13725 22.0766 8.16494C22.0766 7.19264 22.8618 6.40746 23.8341 6.40746C24.8064 6.40746 25.5916 7.19264 25.5916 8.16494C25.5919 8.39582 25.5466 8.62449 25.4584 8.83785C25.3702 9.05121 25.2407 9.24507 25.0775 9.40832C24.9142 9.57158 24.7204 9.70102 24.507 9.78924C24.2936 9.87746 24.065 9.92272 23.8341 9.92243Z" fill="currentColor"/>
</svg>
