<svg width="20" height="20" viewBox="0 0 20 20" fill="none" xmlns="http://www.w3.org/2000/svg">
    <path fill-rule="evenodd" clip-rule="evenodd"
        d="M1.3749 9.03988C6.74359 6.48623 10.3236 4.8027 12.1148 3.9893C17.2292 1.66689 18.2919 1.26346 18.9846 1.25014C19.1369 1.24721 19.4776 1.28843 19.6982 1.4839C19.8845 1.64895 19.9358 1.87191 19.9603 2.02839C19.9848 2.18487 20.0154 2.54135 19.9911 2.81989C19.714 5.9991 18.5147 13.7142 17.9046 17.275C17.6465 18.7816 17.1382 19.2868 16.6461 19.3363C15.5766 19.4437 14.7645 18.5647 13.7287 17.8234C12.1078 16.6634 11.1921 15.9413 9.61879 14.8094C7.80053 13.5012 8.97923 12.7823 10.0155 11.6073C10.2866 11.2998 14.9987 6.62053 15.0899 6.19605C15.1013 6.14296 15.1119 5.94507 15.0042 5.84058C14.8965 5.73609 14.7376 5.77182 14.6229 5.80024C14.4604 5.84052 11.871 7.70901 6.85486 11.4057C6.11988 11.9567 5.45416 12.2252 4.8577 12.2111C4.20015 12.1956 2.93528 11.8052 1.99498 11.4715C0.84166 11.0622 -0.074973 10.8458 0.00484519 10.1507C0.0464194 9.78864 0.503103 9.41837 1.3749 9.03988Z"
        fill="currentColor" />
</svg>