<svg width="20" height="20" viewBox="0 0 20 20" fill="none" xmlns="http://www.w3.org/2000/svg">
    <path fill-rule="evenodd" clip-rule="evenodd"
        d="M17.8253 3.42841C18.682 3.65905 19.3574 4.3345 19.5881 5.19117C20.0164 6.75624 19.9999 10.0182 19.9999 10.0182C19.9999 10.0182 19.9999 13.2636 19.5881 14.8287C19.3574 15.6854 18.682 16.3608 17.8253 16.5915C16.2602 17.0033 9.99996 17.0033 9.99996 17.0033C9.99996 17.0033 3.75616 17.0033 2.17462 16.575C1.31795 16.3443 0.642501 15.6689 0.41186 14.8122C0 13.2636 0 10.0017 0 10.0017C0 10.0017 0 6.75624 0.41186 5.19117C0.642501 4.3345 1.33443 3.64258 2.17462 3.41194C3.73969 3.00008 9.99996 3.00008 9.99996 3.00008C9.99996 3.00008 16.2602 3.00008 17.8253 3.42841ZM13.2121 10.0015L8.00618 12.9998V7.00317L13.2121 10.0015Z"
        fill="currentColor" />
</svg>